<svg xmlns="http://www.w3.org/2000/svg" xmlns:xlink="http://www.w3.org/1999/xlink" version="1.1" width="256" height="256" viewBox="0 0 256 256" xml:space="preserve">

<defs>
</defs>
<g style="stroke: none; stroke-width: 0; stroke-dasharray: none; stroke-linecap: butt; stroke-linejoin: miter; stroke-miterlimit: 10; fill: rgb(255,0,112); fill-rule: nonzero; opacity: 1;" transform="translate(0 -2.842170943040401e-14) scale(2.81 2.81)" >
	<path d="M 90 90 H 0 V 0 h 90 V 90 z M 5.625 84.375 h 78.75 V 5.625 H 5.625 V 84.375 z" style="stroke: none; stroke-width: 1; stroke-dasharray: none; stroke-linecap: butt; stroke-linejoin: miter; stroke-miterlimit: 10; fill: rgb(255,0,112); fill-rule: nonzero; opacity: 1;" transform=" matrix(1 0 0 1 0 0) " stroke-linecap="round" />
</g>
<g style="stroke: none; stroke-width: 0; stroke-dasharray: none; stroke-linecap: butt; stroke-linejoin: miter; stroke-miterlimit: 10; fill: none; fill-rule: nonzero; opacity: 1;" transform="translate(210.21637517412165 46.17984832069335) rotate(90) scale(1.82 1.82)" >
	<path d="M 24.25 90 c -0.896 0 -1.792 -0.342 -2.475 -1.025 c -1.367 -1.366 -1.367 -3.583 0 -4.949 L 60.8 45 L 21.775 5.975 c -1.367 -1.367 -1.367 -3.583 0 -4.95 c 1.367 -1.366 3.583 -1.366 4.95 0 l 41.5 41.5 c 1.367 1.366 1.367 3.583 0 4.949 l -41.5 41.5 C 26.042 89.658 25.146 90 24.25 90 z" style="stroke: none; stroke-width: 1; stroke-dasharray: none; stroke-linecap: butt; stroke-linejoin: miter; stroke-miterlimit: 10; fill: rgb(255,0,112); fill-rule: nonzero; opacity: 1;" transform=" matrix(1 0 0 1 0 0) " stroke-linecap="round" />
</g>
</svg>